<svg version="1.2" xmlns="http://www.w3.org/2000/svg" viewBox="511.9599609375 302.9899597167969 374.0302734375 394.0101013183594" width="1536" height="1024">
	<style>
		.s0 { fill: #43e5e1 } 
	</style>
	<path id="Path 0" fill-rule="evenodd" class="s0" d="m699.96 302.99c0.3-0.01 1.82 2.58 3.39 5.75 1.56 3.17 6.91 12.74 11.89 21.26 4.97 8.52 13.1 21.57 18.06 29 4.96 7.43 12.42 18 16.59 23.5 4.17 5.5 10.92 14.05 15.01 19 4.09 4.95 13.55 15.1 21.02 22.55 7.47 7.46 18.98 18.03 25.58 23.5 6.6 5.47 16.95 13.6 23 18.05 6.05 4.46 17.08 12.12 24.5 17.02 7.42 4.91 16.54 10.71 20.26 12.9 3.73 2.19 6.75 4.21 6.73 4.48-0.02 0.27-3.27 2.3-7.23 4.5-3.95 2.2-15.08 9.22-24.73 15.61-9.64 6.39-22.93 15.8-29.53 20.91-6.6 5.12-16.5 13.22-22 18-5.5 4.78-15.4 14.28-22 21.11-6.6 6.83-15.83 17.18-20.5 23.01-4.67 5.82-12.16 15.71-16.63 21.97-4.48 6.27-11.94 17.47-16.59 24.89-4.65 7.42-11.19 18.45-14.53 24.5-3.35 6.05-7.36 13.59-8.92 16.76-1.56 3.17-3.06 5.76-3.33 5.74-0.28-0.01-2.3-3.48-4.5-7.7-2.2-4.23-7.55-13.78-11.89-21.24-4.34-7.46-11.95-19.64-16.91-27.06-4.96-7.42-12.4-18-16.55-23.5-4.14-5.5-10.91-14.05-15.05-19-4.14-4.95-13.17-14.63-20.07-21.51-6.89-6.87-17.03-16.26-22.53-20.85-5.5-4.59-14.95-12.07-21-16.63-6.05-4.55-16.85-12.19-24-16.96-7.15-4.77-18.08-11.68-24.29-15.36-6.2-3.68-11.27-6.92-11.25-7.19 0.02-0.27 4.2-2.93 9.29-5.9 5.09-2.96 15.1-9.21 22.25-13.87 7.15-4.67 18.85-12.84 26-18.16 7.15-5.32 16.15-12.32 20-15.55 3.85-3.23 11.68-10.18 17.4-15.45 5.73-5.26 14.83-14.52 20.23-20.57 5.4-6.05 13.69-15.95 18.43-22 4.73-6.05 14.15-19.33 20.92-29.5 6.77-10.18 15.62-24.36 19.67-31.52 4.04-7.15 8.68-15.59 10.31-18.75 1.62-3.15 3.2-5.74 3.5-5.74zm-15.78 54.01c-3.03 5.23-8.75 14.45-12.71 20.5-3.97 6.05-10.56 15.5-14.65 21-4.09 5.5-11.49 14.73-16.46 20.5-4.97 5.77-13.27 14.53-18.44 19.45-5.18 4.92-15.27 13.61-22.42 19.31-7.15 5.7-19.53 14.75-27.5 20.1-7.98 5.36-19.12 12.41-24.76 15.69-5.64 3.27-10.25 6.29-10.25 6.7 0.01 0.41 3.05 2.4 6.76 4.41 3.71 2.01 12.37 7.24 19.25 11.62 6.87 4.38 18.35 12.32 25.5 17.64 7.15 5.33 17.72 13.76 23.5 18.73 5.77 4.97 14.92 13.73 20.32 19.45 5.4 5.72 13.34 14.9 17.64 20.4 4.3 5.5 11.28 14.95 15.51 21 4.23 6.05 11.41 17.3 15.97 25 4.56 7.7 10.37 17.94 12.92 22.75 2.55 4.81 4.98 8.75 5.39 8.75 0.41-0.01 2.42-3.27 4.46-7.25 2.05-3.99 6.94-12.88 10.87-19.75 3.93-6.88 11.2-18.58 16.15-26 4.95-7.42 12.66-18.21 17.13-23.98 4.48-5.76 13.76-16.27 20.64-23.37 6.87-7.09 16.55-16.36 21.5-20.61 4.95-4.24 13.5-11.1 19-15.24 5.5-4.14 16.11-11.53 23.57-16.42 7.46-4.88 16.79-10.68 20.73-12.88 3.93-2.2 7.17-4.23 7.19-4.5 0.02-0.27-3.01-2.26-6.73-4.41-3.72-2.15-11.71-7.15-17.76-11.12-6.05-3.96-16.4-11.23-23-16.15-6.6-4.92-16.05-12.36-21-16.53-4.95-4.16-14.65-13.36-21.56-20.43-6.91-7.07-15.94-17.13-20.06-22.36-4.13-5.23-10.68-14-14.57-19.5-3.89-5.5-10.44-15.4-14.56-22-4.11-6.6-10.37-17.74-13.91-24.75-3.53-7.01-6.95-12.75-7.59-12.75-0.64 0-3.28 3.94-5.86 8.75-2.58 4.81-7.18 13.02-10.21 18.25z"/>
</svg>